<mxfile host="app.diagrams.net" modified="2024-06-18T15:00:34.998Z" agent="Mozilla/5.0 (Windows NT 10.0; Win64; x64) AppleWebKit/537.36 (KHTML, like Gecko) Chrome/125.0.0.0 Safari/537.36" etag="RKPB9uio3RfoMyLgjfh1" version="24.2.5" type="device">
  <diagram name="Page-1" id="1PGbxG-JRSsGDjTiNKqe">
    <mxGraphModel dx="548" dy="317" grid="1" gridSize="10" guides="1" tooltips="1" connect="1" arrows="1" fold="1" page="1" pageScale="1" pageWidth="850" pageHeight="1100" math="0" shadow="0">
      <root>
        <mxCell id="0" />
        <mxCell id="1" parent="0" />
        <mxCell id="w_M9kZpoK7uKxhwz330O-2" style="rounded=0;orthogonalLoop=1;jettySize=auto;html=1;exitX=0.5;exitY=1;exitDx=0;exitDy=0;strokeColor=default;flowAnimation=0;shadow=0;jumpStyle=none;orthogonal=0;entryX=0.5;entryY=0;entryDx=0;entryDy=0;endArrow=classic;endFill=1;startArrow=oval;startFill=1;strokeWidth=5;" parent="1" source="cbEqYPbVe2UiCqQq94zS-2" target="cbEqYPbVe2UiCqQq94zS-4" edge="1">
          <mxGeometry relative="1" as="geometry">
            <mxPoint x="152.5" y="140" as="sourcePoint" />
            <mxPoint x="-32.5" y="220" as="targetPoint" />
          </mxGeometry>
        </mxCell>
        <mxCell id="0lJ9nApNie-sTq7GxG3D-34" value="Komentarz" style="edgeLabel;html=1;align=center;verticalAlign=middle;resizable=0;points=[];fontSize=22;fontColor=#99FFFF;labelBackgroundColor=#FF00FF;labelBorderColor=#6600CC;textShadow=0;" vertex="1" connectable="0" parent="w_M9kZpoK7uKxhwz330O-2">
          <mxGeometry x="-0.2441" y="-2" relative="1" as="geometry">
            <mxPoint as="offset" />
          </mxGeometry>
        </mxCell>
        <mxCell id="cbEqYPbVe2UiCqQq94zS-2" value="A" style="ellipse;whiteSpace=wrap;html=1;aspect=fixed;" parent="1" vertex="1">
          <mxGeometry x="20" width="80" height="80" as="geometry" />
        </mxCell>
        <mxCell id="cbEqYPbVe2UiCqQq94zS-4" value="B" style="ellipse;whiteSpace=wrap;html=1;aspect=fixed;" parent="1" vertex="1">
          <mxGeometry x="20" y="240" width="80" height="80" as="geometry" />
        </mxCell>
        <mxCell id="xb7h13wAjRhVSH1K_NRV-1" style="rounded=0;orthogonalLoop=1;jettySize=auto;html=1;exitX=0.5;exitY=1;exitDx=0;exitDy=0;strokeColor=#d79b00;flowAnimation=0;shadow=0;jumpStyle=none;orthogonal=0;entryX=0.5;entryY=0;entryDx=0;entryDy=0;endArrow=oval;endFill=1;curved=0;endSize=59;jumpSize=12;opacity=60;fillColor=#ffe6cc;" parent="1" source="xb7h13wAjRhVSH1K_NRV-2" target="xb7h13wAjRhVSH1K_NRV-3" edge="1">
          <mxGeometry relative="1" as="geometry">
            <mxPoint x="252.5" y="140" as="sourcePoint" />
            <mxPoint x="67.5" y="220" as="targetPoint" />
          </mxGeometry>
        </mxCell>
        <mxCell id="xb7h13wAjRhVSH1K_NRV-2" value="A" style="ellipse;whiteSpace=wrap;html=1;aspect=fixed;" parent="1" vertex="1">
          <mxGeometry x="120" width="80" height="80" as="geometry" />
        </mxCell>
        <mxCell id="xb7h13wAjRhVSH1K_NRV-3" value="B" style="ellipse;whiteSpace=wrap;html=1;aspect=fixed;" parent="1" vertex="1">
          <mxGeometry x="120" y="240" width="80" height="80" as="geometry" />
        </mxCell>
        <mxCell id="xb7h13wAjRhVSH1K_NRV-4" style="rounded=0;orthogonalLoop=1;jettySize=auto;html=1;exitX=0.5;exitY=1;exitDx=0;exitDy=0;strokeColor=#b85450;flowAnimation=0;shadow=0;jumpStyle=none;orthogonal=0;entryX=0.5;entryY=0;entryDx=0;entryDy=0;endArrow=oval;endFill=0;fillColor=#f8cecc;" parent="1" source="xb7h13wAjRhVSH1K_NRV-5" target="xb7h13wAjRhVSH1K_NRV-6" edge="1">
          <mxGeometry relative="1" as="geometry">
            <mxPoint x="352.5" y="140" as="sourcePoint" />
            <mxPoint x="167.5" y="220" as="targetPoint" />
          </mxGeometry>
        </mxCell>
        <mxCell id="xb7h13wAjRhVSH1K_NRV-5" value="A" style="ellipse;whiteSpace=wrap;html=1;aspect=fixed;" parent="1" vertex="1">
          <mxGeometry x="220" width="80" height="80" as="geometry" />
        </mxCell>
        <mxCell id="xb7h13wAjRhVSH1K_NRV-6" value="B" style="ellipse;whiteSpace=wrap;html=1;aspect=fixed;" parent="1" vertex="1">
          <mxGeometry x="220" y="240" width="80" height="80" as="geometry" />
        </mxCell>
        <mxCell id="xb7h13wAjRhVSH1K_NRV-7" style="rounded=0;orthogonalLoop=1;jettySize=auto;html=1;exitX=0.5;exitY=1;exitDx=0;exitDy=0;strokeColor=#d6b656;flowAnimation=0;shadow=0;jumpStyle=none;orthogonal=0;entryX=0.5;entryY=0;entryDx=0;entryDy=0;endArrow=none;endFill=0;fillColor=#fff2cc;" parent="1" source="xb7h13wAjRhVSH1K_NRV-8" target="xb7h13wAjRhVSH1K_NRV-9" edge="1">
          <mxGeometry relative="1" as="geometry">
            <mxPoint x="452.5" y="140" as="sourcePoint" />
            <mxPoint x="267.5" y="220" as="targetPoint" />
          </mxGeometry>
        </mxCell>
        <mxCell id="xb7h13wAjRhVSH1K_NRV-8" value="A" style="ellipse;whiteSpace=wrap;html=1;aspect=fixed;" parent="1" vertex="1">
          <mxGeometry x="320" width="80" height="80" as="geometry" />
        </mxCell>
        <mxCell id="xb7h13wAjRhVSH1K_NRV-9" value="B" style="ellipse;whiteSpace=wrap;html=1;aspect=fixed;" parent="1" vertex="1">
          <mxGeometry x="320" y="240" width="80" height="80" as="geometry" />
        </mxCell>
        <mxCell id="xb7h13wAjRhVSH1K_NRV-10" style="rounded=0;orthogonalLoop=1;jettySize=auto;html=1;exitX=0.5;exitY=1;exitDx=0;exitDy=0;strokeColor=#3700CC;flowAnimation=0;shadow=0;jumpStyle=none;orthogonal=0;entryX=0.5;entryY=0;entryDx=0;entryDy=0;endArrow=block;endFill=0;fillColor=#6a00ff;" parent="1" source="xb7h13wAjRhVSH1K_NRV-11" target="xb7h13wAjRhVSH1K_NRV-12" edge="1">
          <mxGeometry relative="1" as="geometry">
            <mxPoint x="552.5" y="140" as="sourcePoint" />
            <mxPoint x="367.5" y="220" as="targetPoint" />
          </mxGeometry>
        </mxCell>
        <mxCell id="xb7h13wAjRhVSH1K_NRV-11" value="A" style="ellipse;whiteSpace=wrap;html=1;aspect=fixed;" parent="1" vertex="1">
          <mxGeometry x="420" width="80" height="80" as="geometry" />
        </mxCell>
        <mxCell id="xb7h13wAjRhVSH1K_NRV-12" value="B" style="ellipse;whiteSpace=wrap;html=1;aspect=fixed;" parent="1" vertex="1">
          <mxGeometry x="420" y="240" width="80" height="80" as="geometry" />
        </mxCell>
        <mxCell id="xb7h13wAjRhVSH1K_NRV-13" style="rounded=0;orthogonalLoop=1;jettySize=auto;html=1;exitX=0.5;exitY=1;exitDx=0;exitDy=0;strokeColor=#6F0000;flowAnimation=0;shadow=0;jumpStyle=none;orthogonal=0;entryX=0.5;entryY=0;entryDx=0;entryDy=0;endArrow=diamond;endFill=1;fillColor=#a20025;" parent="1" source="xb7h13wAjRhVSH1K_NRV-14" target="xb7h13wAjRhVSH1K_NRV-15" edge="1">
          <mxGeometry relative="1" as="geometry">
            <mxPoint x="652.5" y="140" as="sourcePoint" />
            <mxPoint x="467.5" y="220" as="targetPoint" />
          </mxGeometry>
        </mxCell>
        <mxCell id="xb7h13wAjRhVSH1K_NRV-14" value="A" style="ellipse;whiteSpace=wrap;html=1;aspect=fixed;" parent="1" vertex="1">
          <mxGeometry x="520" width="80" height="80" as="geometry" />
        </mxCell>
        <mxCell id="xb7h13wAjRhVSH1K_NRV-15" value="B" style="ellipse;whiteSpace=wrap;html=1;aspect=fixed;" parent="1" vertex="1">
          <mxGeometry x="520" y="240" width="80" height="80" as="geometry" />
        </mxCell>
        <mxCell id="xb7h13wAjRhVSH1K_NRV-16" style="rounded=0;orthogonalLoop=1;jettySize=auto;html=1;exitX=0.5;exitY=1;exitDx=0;exitDy=0;strokeColor=#3700CC;flowAnimation=0;shadow=0;jumpStyle=none;orthogonal=0;entryX=0.5;entryY=0;entryDx=0;entryDy=0;endArrow=diamond;endFill=0;fillColor=#6a00ff;" parent="1" source="xb7h13wAjRhVSH1K_NRV-17" target="xb7h13wAjRhVSH1K_NRV-18" edge="1">
          <mxGeometry relative="1" as="geometry">
            <mxPoint x="752.5" y="140" as="sourcePoint" />
            <mxPoint x="567.5" y="220" as="targetPoint" />
          </mxGeometry>
        </mxCell>
        <mxCell id="xb7h13wAjRhVSH1K_NRV-17" value="A" style="ellipse;whiteSpace=wrap;html=1;aspect=fixed;" parent="1" vertex="1">
          <mxGeometry x="620" width="80" height="80" as="geometry" />
        </mxCell>
        <mxCell id="xb7h13wAjRhVSH1K_NRV-18" value="B" style="ellipse;whiteSpace=wrap;html=1;aspect=fixed;" parent="1" vertex="1">
          <mxGeometry x="620" y="240" width="80" height="80" as="geometry" />
        </mxCell>
        <mxCell id="0lJ9nApNie-sTq7GxG3D-1" style="edgeStyle=orthogonalEdgeStyle;rounded=0;orthogonalLoop=1;jettySize=auto;html=1;fillColor=#008a00;strokeColor=#005700;" edge="1" parent="1" source="xb7h13wAjRhVSH1K_NRV-20" target="xb7h13wAjRhVSH1K_NRV-21">
          <mxGeometry relative="1" as="geometry" />
        </mxCell>
        <mxCell id="xb7h13wAjRhVSH1K_NRV-20" value="A" style="ellipse;whiteSpace=wrap;html=1;aspect=fixed;" parent="1" vertex="1">
          <mxGeometry x="720" width="80" height="80" as="geometry" />
        </mxCell>
        <mxCell id="xb7h13wAjRhVSH1K_NRV-21" value="B" style="ellipse;whiteSpace=wrap;html=1;aspect=fixed;" parent="1" vertex="1">
          <mxGeometry x="720" y="240" width="80" height="80" as="geometry" />
        </mxCell>
        <mxCell id="xb7h13wAjRhVSH1K_NRV-22" style="rounded=0;orthogonalLoop=1;jettySize=auto;html=1;exitX=0.5;exitY=1;exitDx=0;exitDy=0;flowAnimation=0;shadow=0;jumpStyle=none;orthogonal=0;entryX=0.5;entryY=0;entryDx=0;entryDy=0;endArrow=classic;endFill=1;startArrow=classic;startFill=1;fillColor=#b1ddf0;strokeColor=#10739e;" parent="1" source="xb7h13wAjRhVSH1K_NRV-23" target="xb7h13wAjRhVSH1K_NRV-24" edge="1">
          <mxGeometry relative="1" as="geometry">
            <mxPoint x="952.5" y="140" as="sourcePoint" />
            <mxPoint x="767.5" y="220" as="targetPoint" />
          </mxGeometry>
        </mxCell>
        <mxCell id="xb7h13wAjRhVSH1K_NRV-23" value="A" style="ellipse;whiteSpace=wrap;html=1;aspect=fixed;" parent="1" vertex="1">
          <mxGeometry x="820" width="80" height="80" as="geometry" />
        </mxCell>
        <mxCell id="xb7h13wAjRhVSH1K_NRV-24" value="B" style="ellipse;whiteSpace=wrap;html=1;aspect=fixed;" parent="1" vertex="1">
          <mxGeometry x="820" y="240" width="80" height="80" as="geometry" />
        </mxCell>
        <mxCell id="0lJ9nApNie-sTq7GxG3D-2" style="rounded=0;orthogonalLoop=1;jettySize=auto;html=1;exitX=0.5;exitY=1;exitDx=0;exitDy=0;strokeColor=default;flowAnimation=0;shadow=0;jumpStyle=none;orthogonal=0;entryX=0.5;entryY=0;entryDx=0;entryDy=0;endArrow=classicThin;endFill=1;startArrow=none;startFill=0;" edge="1" parent="1" source="0lJ9nApNie-sTq7GxG3D-3" target="0lJ9nApNie-sTq7GxG3D-4">
          <mxGeometry relative="1" as="geometry">
            <mxPoint x="1052.5" y="140" as="sourcePoint" />
            <mxPoint x="867.5" y="220" as="targetPoint" />
          </mxGeometry>
        </mxCell>
        <mxCell id="0lJ9nApNie-sTq7GxG3D-3" value="A" style="ellipse;whiteSpace=wrap;html=1;aspect=fixed;" vertex="1" parent="1">
          <mxGeometry x="920" width="80" height="80" as="geometry" />
        </mxCell>
        <mxCell id="0lJ9nApNie-sTq7GxG3D-4" value="B" style="ellipse;whiteSpace=wrap;html=1;aspect=fixed;" vertex="1" parent="1">
          <mxGeometry x="920" y="240" width="80" height="80" as="geometry" />
        </mxCell>
        <mxCell id="0lJ9nApNie-sTq7GxG3D-7" style="rounded=0;orthogonalLoop=1;jettySize=auto;html=1;exitX=0.5;exitY=1;exitDx=0;exitDy=0;strokeColor=default;flowAnimation=0;shadow=0;jumpStyle=none;orthogonal=0;entryX=0.5;entryY=0;entryDx=0;entryDy=0;endArrow=open;endFill=0;startArrow=none;startFill=0;" edge="1" parent="1" source="0lJ9nApNie-sTq7GxG3D-8" target="0lJ9nApNie-sTq7GxG3D-9">
          <mxGeometry relative="1" as="geometry">
            <mxPoint x="1152.5" y="140" as="sourcePoint" />
            <mxPoint x="967.5" y="220" as="targetPoint" />
          </mxGeometry>
        </mxCell>
        <mxCell id="0lJ9nApNie-sTq7GxG3D-8" value="A" style="ellipse;whiteSpace=wrap;html=1;aspect=fixed;" vertex="1" parent="1">
          <mxGeometry x="1020" width="80" height="80" as="geometry" />
        </mxCell>
        <mxCell id="0lJ9nApNie-sTq7GxG3D-9" value="B" style="ellipse;whiteSpace=wrap;html=1;aspect=fixed;" vertex="1" parent="1">
          <mxGeometry x="1020" y="240" width="80" height="80" as="geometry" />
        </mxCell>
        <mxCell id="0lJ9nApNie-sTq7GxG3D-10" style="rounded=0;orthogonalLoop=1;jettySize=auto;html=1;exitX=0.5;exitY=1;exitDx=0;exitDy=0;strokeColor=default;flowAnimation=0;shadow=0;jumpStyle=none;orthogonal=0;entryX=0.5;entryY=0;entryDx=0;entryDy=0;endArrow=openThin;endFill=0;startArrow=none;startFill=0;" edge="1" parent="1" source="0lJ9nApNie-sTq7GxG3D-11" target="0lJ9nApNie-sTq7GxG3D-12">
          <mxGeometry relative="1" as="geometry">
            <mxPoint x="1252.5" y="140" as="sourcePoint" />
            <mxPoint x="1067.5" y="220" as="targetPoint" />
          </mxGeometry>
        </mxCell>
        <mxCell id="0lJ9nApNie-sTq7GxG3D-11" value="A" style="ellipse;whiteSpace=wrap;html=1;aspect=fixed;" vertex="1" parent="1">
          <mxGeometry x="1120" width="80" height="80" as="geometry" />
        </mxCell>
        <mxCell id="0lJ9nApNie-sTq7GxG3D-12" value="B" style="ellipse;whiteSpace=wrap;html=1;aspect=fixed;" vertex="1" parent="1">
          <mxGeometry x="1120" y="240" width="80" height="80" as="geometry" />
        </mxCell>
        <mxCell id="0lJ9nApNie-sTq7GxG3D-13" style="rounded=0;orthogonalLoop=1;jettySize=auto;html=1;exitX=0.5;exitY=1;exitDx=0;exitDy=0;strokeColor=default;flowAnimation=0;shadow=0;jumpStyle=none;orthogonal=0;entryX=0.5;entryY=0;entryDx=0;entryDy=0;endArrow=openAsync;endFill=0;startArrow=none;startFill=0;" edge="1" parent="1" source="0lJ9nApNie-sTq7GxG3D-14" target="0lJ9nApNie-sTq7GxG3D-15">
          <mxGeometry relative="1" as="geometry">
            <mxPoint x="1352.5" y="140" as="sourcePoint" />
            <mxPoint x="1167.5" y="220" as="targetPoint" />
          </mxGeometry>
        </mxCell>
        <mxCell id="0lJ9nApNie-sTq7GxG3D-14" value="A" style="ellipse;whiteSpace=wrap;html=1;aspect=fixed;" vertex="1" parent="1">
          <mxGeometry x="1220" width="80" height="80" as="geometry" />
        </mxCell>
        <mxCell id="0lJ9nApNie-sTq7GxG3D-15" value="B" style="ellipse;whiteSpace=wrap;html=1;aspect=fixed;" vertex="1" parent="1">
          <mxGeometry x="1220" y="240" width="80" height="80" as="geometry" />
        </mxCell>
        <mxCell id="0lJ9nApNie-sTq7GxG3D-16" style="rounded=0;orthogonalLoop=1;jettySize=auto;html=1;exitX=0.5;exitY=1;exitDx=0;exitDy=0;strokeColor=default;flowAnimation=0;shadow=0;jumpStyle=none;orthogonal=0;entryX=0.5;entryY=0;entryDx=0;entryDy=0;endArrow=block;endFill=1;startArrow=none;startFill=0;" edge="1" parent="1" source="0lJ9nApNie-sTq7GxG3D-17" target="0lJ9nApNie-sTq7GxG3D-18">
          <mxGeometry relative="1" as="geometry">
            <mxPoint x="1452.5" y="140" as="sourcePoint" />
            <mxPoint x="1267.5" y="220" as="targetPoint" />
          </mxGeometry>
        </mxCell>
        <mxCell id="0lJ9nApNie-sTq7GxG3D-17" value="A" style="ellipse;whiteSpace=wrap;html=1;aspect=fixed;" vertex="1" parent="1">
          <mxGeometry x="1320" width="80" height="80" as="geometry" />
        </mxCell>
        <mxCell id="0lJ9nApNie-sTq7GxG3D-18" value="B" style="ellipse;whiteSpace=wrap;html=1;aspect=fixed;" vertex="1" parent="1">
          <mxGeometry x="1320" y="240" width="80" height="80" as="geometry" />
        </mxCell>
        <mxCell id="0lJ9nApNie-sTq7GxG3D-19" style="rounded=0;orthogonalLoop=1;jettySize=auto;html=1;exitX=0.5;exitY=1;exitDx=0;exitDy=0;strokeColor=default;flowAnimation=0;shadow=0;jumpStyle=none;orthogonal=0;entryX=0.5;entryY=0;entryDx=0;entryDy=0;endArrow=blockThin;endFill=1;startArrow=none;startFill=0;" edge="1" parent="1" source="0lJ9nApNie-sTq7GxG3D-20" target="0lJ9nApNie-sTq7GxG3D-21">
          <mxGeometry relative="1" as="geometry">
            <mxPoint x="1552.5" y="140" as="sourcePoint" />
            <mxPoint x="1367.5" y="220" as="targetPoint" />
          </mxGeometry>
        </mxCell>
        <mxCell id="0lJ9nApNie-sTq7GxG3D-20" value="A" style="ellipse;whiteSpace=wrap;html=1;aspect=fixed;" vertex="1" parent="1">
          <mxGeometry x="1420" width="80" height="80" as="geometry" />
        </mxCell>
        <mxCell id="0lJ9nApNie-sTq7GxG3D-21" value="B" style="ellipse;whiteSpace=wrap;html=1;aspect=fixed;" vertex="1" parent="1">
          <mxGeometry x="1420" y="240" width="80" height="80" as="geometry" />
        </mxCell>
        <mxCell id="0lJ9nApNie-sTq7GxG3D-22" style="rounded=0;orthogonalLoop=1;jettySize=auto;html=1;exitX=0.5;exitY=1;exitDx=0;exitDy=0;strokeColor=default;flowAnimation=0;shadow=0;jumpStyle=none;orthogonal=0;entryX=0.5;entryY=0;entryDx=0;entryDy=0;endArrow=block;endFill=0;startArrow=none;startFill=0;" edge="1" parent="1" source="0lJ9nApNie-sTq7GxG3D-23" target="0lJ9nApNie-sTq7GxG3D-24">
          <mxGeometry relative="1" as="geometry">
            <mxPoint x="1652.5" y="140" as="sourcePoint" />
            <mxPoint x="1467.5" y="220" as="targetPoint" />
          </mxGeometry>
        </mxCell>
        <mxCell id="0lJ9nApNie-sTq7GxG3D-23" value="A" style="ellipse;whiteSpace=wrap;html=1;aspect=fixed;" vertex="1" parent="1">
          <mxGeometry x="1520" width="80" height="80" as="geometry" />
        </mxCell>
        <mxCell id="0lJ9nApNie-sTq7GxG3D-24" value="B" style="ellipse;whiteSpace=wrap;html=1;aspect=fixed;" vertex="1" parent="1">
          <mxGeometry x="1520" y="240" width="80" height="80" as="geometry" />
        </mxCell>
        <mxCell id="0lJ9nApNie-sTq7GxG3D-25" style="rounded=0;orthogonalLoop=1;jettySize=auto;html=1;exitX=0.5;exitY=1;exitDx=0;exitDy=0;strokeColor=default;flowAnimation=0;shadow=0;jumpStyle=none;orthogonal=0;entryX=0.5;entryY=0;entryDx=0;entryDy=0;endArrow=box;endFill=0;startArrow=none;startFill=0;" edge="1" parent="1" source="0lJ9nApNie-sTq7GxG3D-26" target="0lJ9nApNie-sTq7GxG3D-27">
          <mxGeometry relative="1" as="geometry">
            <mxPoint x="1752.5" y="140" as="sourcePoint" />
            <mxPoint x="1567.5" y="220" as="targetPoint" />
          </mxGeometry>
        </mxCell>
        <mxCell id="0lJ9nApNie-sTq7GxG3D-26" value="A" style="ellipse;whiteSpace=wrap;html=1;aspect=fixed;" vertex="1" parent="1">
          <mxGeometry x="1620" width="80" height="80" as="geometry" />
        </mxCell>
        <mxCell id="0lJ9nApNie-sTq7GxG3D-27" value="B" style="ellipse;whiteSpace=wrap;html=1;aspect=fixed;" vertex="1" parent="1">
          <mxGeometry x="1620" y="240" width="80" height="80" as="geometry" />
        </mxCell>
        <mxCell id="0lJ9nApNie-sTq7GxG3D-28" style="rounded=0;orthogonalLoop=1;jettySize=auto;html=1;exitX=0.5;exitY=1;exitDx=0;exitDy=0;strokeColor=default;flowAnimation=0;shadow=0;jumpStyle=none;orthogonal=0;entryX=0.5;entryY=0;entryDx=0;entryDy=0;endArrow=circlePlus;endFill=0;startArrow=none;startFill=0;" edge="1" parent="1" source="0lJ9nApNie-sTq7GxG3D-29" target="0lJ9nApNie-sTq7GxG3D-30">
          <mxGeometry relative="1" as="geometry">
            <mxPoint x="1852.5" y="140" as="sourcePoint" />
            <mxPoint x="1667.5" y="220" as="targetPoint" />
          </mxGeometry>
        </mxCell>
        <mxCell id="0lJ9nApNie-sTq7GxG3D-29" value="A" style="ellipse;whiteSpace=wrap;html=1;aspect=fixed;" vertex="1" parent="1">
          <mxGeometry x="1720" width="80" height="80" as="geometry" />
        </mxCell>
        <mxCell id="0lJ9nApNie-sTq7GxG3D-30" value="B" style="ellipse;whiteSpace=wrap;html=1;aspect=fixed;" vertex="1" parent="1">
          <mxGeometry x="1720" y="240" width="80" height="80" as="geometry" />
        </mxCell>
        <mxCell id="0lJ9nApNie-sTq7GxG3D-31" style="rounded=0;orthogonalLoop=1;jettySize=auto;html=1;exitX=0.5;exitY=1;exitDx=0;exitDy=0;strokeColor=default;flowAnimation=0;shadow=0;jumpStyle=none;orthogonal=0;entryX=0.5;entryY=0;entryDx=0;entryDy=0;endArrow=ERmany;endFill=0;startArrow=none;startFill=0;" edge="1" parent="1" source="0lJ9nApNie-sTq7GxG3D-32" target="0lJ9nApNie-sTq7GxG3D-33">
          <mxGeometry relative="1" as="geometry">
            <mxPoint x="1952.5" y="140" as="sourcePoint" />
            <mxPoint x="1767.5" y="220" as="targetPoint" />
          </mxGeometry>
        </mxCell>
        <mxCell id="0lJ9nApNie-sTq7GxG3D-32" value="A" style="ellipse;whiteSpace=wrap;html=1;aspect=fixed;" vertex="1" parent="1">
          <mxGeometry x="1820" width="80" height="80" as="geometry" />
        </mxCell>
        <mxCell id="0lJ9nApNie-sTq7GxG3D-33" value="B" style="ellipse;whiteSpace=wrap;html=1;aspect=fixed;" vertex="1" parent="1">
          <mxGeometry x="1820" y="240" width="80" height="80" as="geometry" />
        </mxCell>
      </root>
    </mxGraphModel>
  </diagram>
</mxfile>
